<?xml version="1.0" standalone="no"?>
<!DOCTYPE svg PUBLIC "-//W3C//DTD SVG 1.1//EN" "http://www.w3.org/Graphics/SVG/1.1/DTD/svg11.dtd" >
<svg>
<metadata>
Created by FontForge 20090622 at Tue Oct 29 15:13:50 2019
 By deploy user
Copyright (c) 2013 by Fontscafe.com. All rights reserved.
</metadata>
<defs>
<font id="EgregioScript" horiz-adv-x="508" >
  <font-face 
    font-family="Egregio Script_demo"
    font-weight="400"
    font-stretch="normal"
    units-per-em="2048"
    panose-1="2 0 5 0 0 0 0 0 0 0"
    ascent="1638"
    descent="-410"
    x-height="881"
    cap-height="1744"
    bbox="-797.116 -866.008 2968.05 1878.85"
    underline-thickness="150"
    underline-position="-142"
    unicode-range="U+0020-U+007A"
  />
<missing-glyph horiz-adv-x="1024" 
 />
    <glyph glyph-name=".notdef" horiz-adv-x="1024" 
 />
    <glyph glyph-name="NULL" horiz-adv-x="0" 
 />
    <glyph glyph-name="nonmarkingreturn" 
 />
    <glyph glyph-name="space" unicode=" " 
 />
    <glyph glyph-name="space" unicode="&#xa0;" 
 />
    <glyph glyph-name="A" unicode="A" horiz-adv-x="2087" 
d="M1778 1333q-12 -25 -100 -179q8 0 21 -2q12 -3 22 -1q50 149 57 182zM645 664q-10 -55 8 -112q29 -68 110 -36q66 25 103 76q61 82 76 199q15 125 -36 201q-2 6 -1 6q-218 -109 -260 -334zM1575 1090q-238 42 -415 0q-116 -28 -192 -66q96 -259 -65 -490
q-58 -83 -132 -117q-81 -37 -162 -6q-60 23 -89 82q-31 62 -15 139q27 137 123 239q82 86 247 179q0 15 -16 36q-31 43 -107 75q-87 38 -195 7q-107 -32 -183 -118q-81 -92 -124 -277q-52 -225 16 -404q32 -82 93 -158q89 -110 198 -134q166 -36 365 67q135 69 294 314
q82 125 359 632zM2157 1672q-1 -5 -13 -37q-12 -31 -13 -32q-135 -365 -182 -507q131 -43 142 -49q15 -8 24 -54t-10 -51q-16 -4 -67 24q-47 24 -117 45q-78 -226 -127 -464q-54 -261 -35 -378q13 -86 59 -106q26 -11 78 55q36 46 63 96q43 83 112 238q27 59 46 57
q23 -3 6 -57q-54 -127 -95 -210q-26 -54 -79 -139q-59 -94 -169 -102q-85 -5 -144 12q-56 19 -92 84q-39 69 -35 161q14 265 184 813q-2 2 -24 7q-23 5 -24 6q7 11 -155 -275q-147 -258 -196 -336q-147 -232 -254 -323q-156 -133 -373 -138q-265 -8 -421 93
q-187 122 -231 343q-55 283 85 541q70 129 228 218q214 120 435 32q113 -45 176 -161q269 122 675 82q246 478 304 552q20 28 52 34q78 14 182 -21q19 -9 5 -53z" />
    <glyph glyph-name="B" unicode="B" horiz-adv-x="2417" 
d="M1879 1699q-36 -124 -171 -500q395 53 411 415q4 102 -240 85zM2008 1055q-115 52 -325 74q-94 -250 -156 -394q-170 -393 -247 -462q80 -118 222 -166q119 -41 223 -19q254 54 414 528q111 329 -131 439zM894 997q-79 -40 -141 -102q-114 -115 -96 -293q9 -50 42 -67
q44 -23 97 24q67 59 102 174q24 79 23 133q-1 73 -24 128q-1 4 -3 3zM436 144q98 -77 193 -81q196 -9 332 113q151 171 289 494l185 454q-285 -11 -483 -106q43 -114 18 -247q-25 -131 -91 -212q-39 -48 -91 -74q-69 -34 -125 -2q-73 43 -70 174q3 110 45 188
q76 138 228 204q-86 137 -246 130q-132 -6 -229 -84q-103 -84 -151 -241q-84 -280 40 -520q59 -114 156 -190zM2357 525q-66 -214 -172 -338q-89 -103 -197 -139q-105 -35 -304 -31q-191 5 -313 84q-83 54 -137 118q-151 -159 -364 -203q-84 -17 -176 -16h-53
q-148 0 -288 67q-129 62 -207 158q-132 163 -144 347q-18 282 115 467q150 210 455 222q117 5 212 -47q92 -50 137 -138q183 86 537 106q-1 -2 13 33l179 439q-184 -67 -289 -136q-131 -87 -222 -233q-7 -10 -16 -29q-10 -19 -14 -26q-15 -23 -26 -7q-46 68 -145 100
q-15 4 -28 7q-15 3 -18 4q-6 1 -4 10q3 9 15 21q57 51 128 94q156 98 320 164q294 118 548 130q266 12 387 -74q108 -78 49 -268q-38 -121 -141 -189q-83 -55 -237 -74q166 -42 275 -110q150 -93 169 -262q8 -80 -44 -251z" />
    <glyph glyph-name="C" unicode="C" horiz-adv-x="1420" 
d="M874 1224q5 -34 -39 -76q-18 -16 -26 -16q-8 2 -10 31q-4 51 -22 126q-150 -289 -198 -506q96 0 194 54q130 101 325 465q48 92 74 181q32 111 1 147q-46 34 -142 -22q-30 -18 -116 -110q-67 -73 -94 -127q52 -135 53 -147zM163 994q74 -109 171 -154q50 221 138 412
q79 169 197 316q-43 63 -125 98q-81 33 -167 29q-117 -5 -188 -73q-164 -154 -124 -397q19 -115 98 -231zM1282 1625q46 -50 65 -115q31 -114 -25 -265q-77 -208 -197 -305q-141 -107 -291 -163q-130 -48 -271 -57q-44 -224 25 -381q33 -78 127 -148q119 -89 250 -85
q123 4 243 106q116 99 190 243l16 29t14 26q31 62 49 55q24 -10 -1 -68q-40 -90 -94 -173q-107 -167 -241 -243q-244 -138 -494 -41q-260 101 -322 430q-24 129 -4 306q-126 76 -204 180q-136 183 -114 404q21 203 150 307q137 109 308 81q149 -24 252 -136q82 83 195 123
q99 35 221 -8q83 -29 153 -102z" />
    <glyph glyph-name="D" unicode="D" horiz-adv-x="2526" 
d="M2332 1139q30 307 -104 450q-69 73 -211 91q-71 10 -128 4q-11 -41 -207 -579q-266 -728 -394 -829q78 -107 202 -153q112 -42 235 -26q122 16 247 154q107 118 182 282q151 332 178 606zM931 833q0 91 -28 153q-4 0 -9 -3q-84 -42 -127 -102q-58 -83 -65 -208
q-5 -88 53 -115q31 -15 71 8q38 23 58 65q45 91 47 202zM1358 1505q-130 -86 -222 -232q-6 -10 -16 -29q-9 -19 -13 -25q-15 -24 -26 -7q-46 67 -145 99q-14 5 -27 7q-16 3 -19 4q-6 2 -4 10q3 10 15 21q58 51 128 93q156 98 319 164q281 113 546 135q177 15 329 -55
q155 -72 239 -212q83 -137 87 -354q4 -205 -61 -430q-85 -295 -265 -491q-108 -118 -272 -162q-150 -41 -343 -16q-158 21 -278 111q-60 45 -88 86q-121 -128 -280 -180q-184 -61 -387 -34q-145 20 -280 99q-143 85 -220 209q-56 90 -70 243q-11 120 5 203q40 215 169 357
q141 155 316 174q211 23 354 -88q58 -45 91 -112q160 60 338 78q33 3 42 -20q4 -10 8 -48q6 -66 -20 -48q-14 10 -92 11q-156 2 -244 -43q24 -81 22 -170q0 -118 -41 -212q-42 -94 -106 -134q-31 -19 -77 -13q-45 5 -70 28q-73 68 -59 198q11 111 69 194q61 88 168 147
q-31 61 -66 85q-98 68 -226 40q-73 -16 -176 -108q-69 -61 -120 -172q-57 -123 -70 -263q-16 -172 115 -369q108 -162 248 -198q193 -50 336 54q139 100 268 392q165 373 292 692l167 427q-183 -67 -288 -136z" />
    <glyph glyph-name="E" unicode="E" horiz-adv-x="1959" 
d="M1007 1598q-72 -99 -117 -230q-15 -42 -23 -78l-5 -20q-1 -7 0 -4q119 50 222 160q65 70 93 154q31 93 -27 100q-76 10 -143 -82zM1903 900q27 -99 4 -250q-24 -157 -92 -285q-122 -234 -326 -315q-135 -54 -314 -50q-166 5 -306 56q-240 88 -355 231q-128 158 -92 359
q57 319 416 370q-99 30 -174 73q-44 24 -41 82q0 -5 -82 9q-88 16 -137 33q-192 68 -315 215q-71 84 -86 146q-5 21 -1 36q6 20 28 18q98 -10 166 46l30 25q16 15 22 20q21 17 38 14q10 -4 17 -35q11 -176 64 -265q93 -157 265 -189q26 102 72 219q72 179 193 244
q95 50 227 39q152 -12 214 -90q62 -77 13 -186q-76 -170 -329 -246q-126 -37 -170 -40q-8 -77 7 -99q17 -25 79 -9q14 3 28 -9q13 -11 13 -24q3 -121 20 -175q10 -31 -6 -41q-16 -9 -50 2q-128 41 -200 -23q-56 -49 -84 -161q-32 -134 6 -273q53 -195 234 -254
q64 -21 157 -18q114 4 207 45q107 47 156 86q67 53 137 164q77 122 115 264q37 135 22 224q-24 141 -132 179q-238 85 -371 -115q-54 -80 -62 -193q-3 -48 16 -87q20 -42 54 -46q65 -8 109 70q55 98 54 184q0 14 -4 32q-4 23 -4 25q-2 22 18 25q38 5 76 -8q39 -13 39 -35
q0 -152 -73 -248q-69 -93 -180 -100q-106 -7 -147 61q-50 84 -19 209q25 102 80 170q112 140 296 165q162 22 297 -63q129 -81 163 -208z" />
    <glyph glyph-name="F" unicode="F" horiz-adv-x="1576" 
d="M892 995q-78 -40 -140 -102q-115 -114 -96 -292q9 -50 42 -67q43 -23 96 24q67 58 102 173q24 80 23 133q-1 73 -24 128q-1 4 -3 3zM435 144q98 -77 193 -81q196 -9 331 113q151 170 288 492l185 453q-284 -11 -482 -105q43 -114 18 -247q-25 -130 -91 -211
q-39 -48 -90 -74q-70 -34 -125 -2q-74 42 -70 174q2 110 45 187q76 138 227 204q-86 136 -245 129q-132 -5 -229 -83q-103 -84 -150 -241q-84 -279 40 -519q58 -114 155 -189zM2364 1729q99 -217 134 -300q13 -32 -13 -23q-1 0 -23 7q-22 6 -40 12t-25 27q-11 39 -35 69
q-36 48 -97 81q-124 70 -348 70q-35 -81 -99 -247q-65 -171 -97 -247q241 -15 469 -94q32 -55 -29 -129q2 0 -88 36q-101 42 -183 64q-69 19 -132 33l-64 15q-153 -394 -271 -603q-64 -118 -192 -281q-150 -159 -363 -203q-83 -17 -175 -16h-53q-148 0 -288 67
q-129 62 -206 158q-132 162 -144 345q-18 282 114 466q151 210 455 222q117 5 211 -47q92 -50 137 -138q183 86 536 106q-1 -2 13 33l178 438q-183 -67 -288 -136q-131 -86 -222 -231l-16 -30t-14 -25q-14 -24 -25 -7q-46 67 -145 99q-14 5 -28 7q-15 3 -18 4q-6 2 -4 10
q3 10 15 21q57 51 128 94q156 97 319 163q282 113 547 130q143 9 415 1q45 0 54 -21z" />
    <glyph glyph-name="G" unicode="G" horiz-adv-x="1615" 
d="M846 -547q157 222 282 555q-124 -61 -417 -236q-250 -149 -340 -294q-40 -65 -42 -118q-3 -57 43 -85q98 -62 227 -13q153 58 247 191zM330 837q50 219 137 409q78 168 195 314q-42 62 -124 97q-80 33 -166 29q-116 -5 -187 -73q-162 -152 -123 -393q19 -114 97 -230
q74 -109 171 -153zM769 1283q-149 -287 -197 -502q96 0 193 54q130 99 323 461q48 92 74 180q31 110 1 145q-46 34 -141 -21q-30 -18 -116 -109q-66 -72 -93 -126q52 -134 53 -146q5 -34 -39 -76q-18 -16 -26 -15q-7 1 -10 30q-4 51 -22 125zM1680 592q29 0 -4 -80
q-36 -88 -73 -145q-81 -120 -207 -214q-60 -222 -124 -379q-167 -405 -320 -523q-207 -159 -469 -85q-201 57 -212 172q-13 134 163 302q73 68 249 182q59 39 247 144q196 111 231 139l22 66l-6 -6q-93 -113 -243 -148q-75 -17 -131 -12v1q-80 4 -163 37q-258 102 -319 427
q-24 128 -4 304q-126 75 -203 178q-135 182 -113 402q20 201 149 304q136 109 306 81q148 -24 249 -136q83 83 194 123q99 35 220 -8q83 -29 151 -102q47 -49 65 -113q31 -114 -25 -264q-76 -206 -195 -302q-140 -107 -289 -162q-129 -48 -269 -57q-44 -225 19 -370
q36 -84 132 -155q116 -87 244 -84q64 5 122 42q135 84 187 291q27 104 26 191q5 42 5 66q-1 38 49 60q182 77 223 51q26 -17 13 -36q-47 -69 -122 -375l-39 -164q61 41 123 127q53 76 94 169q26 62 47 61z" />
    <glyph glyph-name="H" unicode="H" horiz-adv-x="2336" 
d="M876 971q-97 -53 -142 -109q-108 -135 -76 -253q18 -64 54 -76q74 -24 125 62q40 67 54 156q22 138 -9 217q0 7 -6 3zM577 64q77 -32 210 -1q81 17 161 90q138 125 301 505q57 132 183 447q-280 -1 -478 -101q44 -120 26 -254q-18 -136 -66 -204q-40 -55 -132 -82
q-78 -22 -132 20q-37 29 -53 74q-49 133 53 289q84 115 205 190q-13 27 -41 58q-58 60 -137 77q-105 23 -224 -72q-153 -120 -200 -328q-67 -293 101 -523q94 -130 223 -185zM2399 1642q-4 -14 -13 -36q-12 -28 -13 -32q-134 -358 -180 -499q129 -41 141 -48q14 -8 23 -52
q9 -46 -9 -50q-21 -5 -82 27q-69 36 -100 40q-77 -221 -125 -456q-52 -256 -34 -370q14 -91 58 -105q28 -9 75 50q34 43 63 99q43 81 125 266q19 41 39 39q21 -2 5 -56q-59 -139 -100 -222q-25 -53 -78 -137q-59 -92 -167 -99q-74 -6 -142 17q-65 22 -98 107q-23 61 -25 128
q-4 208 180 798q1 2 2 6l-1 1q-73 19 -153 33q-30 5 -118 10q-4 -12 -6 -16q-168 -451 -317 -714q-90 -157 -221 -248q-120 -84 -270 -111q-47 -9 -136 -10q-159 -1 -253 27q-112 24 -173 58q-188 105 -267 338q-47 137 -18 317q31 198 218 376q80 77 265 111q83 15 174 -1
q76 -14 116 -40q78 -50 137 -124q293 110 544 110q-6 -20 94 243q22 59 82 204q-99 -84 -240 -54q-64 14 -168 83q-73 49 -126 21q-86 -50 -62 -147q16 -61 106 -128q7 -6 -8 -15q-15 -10 -37 -12q-76 -9 -88 -14q-33 -15 -52 -43q-19 -30 -30 -24q-39 22 -61 83
q-20 57 -14 114q11 95 79 162q45 44 100 66q111 43 253 27q49 -5 153 -52q82 -37 152 -23q90 19 163 50q76 31 74 31q30 6 40 0t6 -29q-18 -91 -185 -549l272 -35q130 399 195 548q11 26 51 34q78 14 180 -21q18 -9 5 -52z" />
    <glyph glyph-name="I" unicode="I" horiz-adv-x="1609" 
d="M1372 1602q-107 -56 -263 -217q-127 -133 -194 -398q-68 -270 -13 -445q54 -164 178 -219q34 58 59 132q194 862 235 960q88 231 228 257q-161 -34 -230 -70zM1862 1702q-2 -12 -13 -18q-90 -49 -116 -75q-74 -73 -129 -215q-50 -126 -130 -514l-37 -182
q-29 -140 -29 -143q0 -1 -1 -4q-42 -162 -104 -271q63 -9 112 9q105 38 165 152q11 17 23 44q11 26 16 34q17 29 42 25q19 -3 -20 -88q-33 -72 -79 -125q-68 -80 -182 -99q-32 -5 -110 -6q-26 -34 -50 -57q-67 -63 -199 -114q-143 -54 -271 -55q-321 -3 -514 134
q-141 100 -201 302q-53 174 -25 325q41 221 214 371q129 112 250 135q142 29 252 -7q47 -16 21 -39q-4 -3 -57 10q-65 16 -151 -3q-110 -26 -177 -91q-117 -114 -146 -279q-56 -321 122 -582q87 -129 245 -191q63 -25 176 1q145 33 289 190q-173 75 -255 222
q-88 157 -73 346q24 324 309 622q121 127 342 207q164 60 300 71q133 11 183 -21q11 -7 8 -21z" />
    <glyph glyph-name="J" unicode="J" horiz-adv-x="1159" 
d="M942 1623q-141 -74 -260 -216q-135 -161 -193 -390q-66 -264 -11 -437q58 -178 202 -230q18 65 120 548q81 386 144 538q88 229 227 255q-160 -32 -229 -68zM1429 1723q-2 -13 -13 -19q-86 -47 -115 -74q-92 -84 -135 -237q-49 -177 -188 -809q-35 -154 -68 -277
q43 1 75 13q105 38 165 151q9 17 21 45q12 24 16 33q17 29 42 25q19 -3 -20 -87q-33 -73 -78 -125q-66 -79 -181 -98q-24 -4 -53 -4q-46 -172 -98 -332q-92 -284 -241 -517q-148 -231 -428 -245q-203 -11 -317 118q-91 103 -86 246q4 107 58 208q71 134 220 175
q107 28 221 -25q38 -17 42 -32q7 -29 -27 -35q5 2 -63 26q-95 34 -181 3q-105 -36 -166 -149q-47 -85 -45 -181q2 -104 62 -178q40 -49 119 -56q72 -6 143 24q80 34 187 163q100 119 152 231q121 257 214 593q-1 -3 -34 10q-41 16 -82 41q-128 76 -191 198q-74 144 -60 325
q25 339 306 618q121 119 351 210q114 44 291 52q152 7 177 -8q11 -7 8 -20z" />
    <glyph glyph-name="K" unicode="K" horiz-adv-x="2341" 
d="M893 983q-84 -43 -127 -103q-58 -83 -65 -207q-5 -88 53 -116q31 -14 71 9q38 23 58 65q45 91 47 201q0 91 -28 154q-4 -1 -9 -3zM2447 1723q27 -12 5 -63q-15 -33 -64 -105q-145 -211 -330 -329q-88 -55 -180 -74q184 -50 234 -169q32 -73 -20 -266q-24 -89 -35 -125
q-4 -20 -11 -50q-57 -234 -35 -372q15 -91 59 -105q28 -9 76 50q33 43 62 99q43 82 123 254q27 59 46 57q22 -3 5 -57l-104 -227q-26 -52 -80 -137q-57 -92 -166 -99q-84 -7 -141 12q-48 15 -88 85q-40 71 -38 139v37q1 73 15 159q16 106 70 295q39 141 56 195q2 10 3 17
q3 57 -16 84q-48 67 -205 76h-12q1 1 -3 -9q-169 -456 -319 -719q-65 -113 -141 -182q-111 -106 -252 -152q-184 -61 -387 -34q-142 19 -275 99q-138 84 -219 207q-60 92 -75 246q-12 117 4 202q41 214 169 356q141 155 316 174q211 23 354 -88q58 -45 91 -112
q159 60 337 78q33 3 43 -20q4 -10 7 -47q6 -67 -20 -48q-14 9 -91 10q-156 2 -245 -42q24 -82 22 -171q0 -117 -40 -211q-42 -94 -106 -134q-31 -19 -77 -14q-45 5 -70 29q-73 67 -59 198q11 110 69 194q61 88 168 147q-31 60 -66 84q-99 68 -226 40q-73 -16 -176 -108
q-72 -64 -124 -171q-61 -126 -66 -263q-6 -187 116 -369q107 -162 247 -198q193 -50 336 54q107 77 217 286q11 21 28 57l16 33v-1q56 114 75 159l211 518l90 234q22 59 82 203q-98 -83 -240 -53q-63 13 -167 82q-73 49 -126 21q-85 -50 -61 -146q15 -61 105 -128
q8 -5 -7 -15q-16 -9 -38 -12q-75 -8 -87 -13q-34 -15 -52 -44q-20 -29 -30 -23q-39 21 -61 82q-20 57 -14 114q11 94 79 161q45 45 100 66q111 43 252 28q49 -6 152 -53q82 -37 152 -22q90 18 163 49q75 31 74 31q29 6 39 0q11 -6 6 -28q-7 -37 -37 -131l1 1l-68 -198
q-58 -168 -72 -206q168 41 267 140q109 108 170 241q16 36 35 89q15 43 21 55q8 14 19 23q53 32 235 -7z" />
    <glyph glyph-name="L" unicode="L" horiz-adv-x="2382" 
d="M1236 589q60 146 90 269q-112 143 -234 155q-69 6 -104 2q24 -83 23 -172q-6 -226 -132 -313q-12 -9 -25 -15q-83 -40 -135 9q-45 43 -52 127q-6 64 9 130q25 104 100 186q57 61 123 92q-23 41 -71 77q-96 73 -224 52q-83 -13 -173 -94q-124 -109 -166 -263
q-83 -298 81 -540q108 -160 252 -194q108 -26 179 -8q72 18 188 101q151 108 271 399zM912 993q-80 -51 -113 -92q-43 -55 -68 -158q-13 -54 -3 -111q11 -63 44 -75q67 -24 129 80q39 67 46 170q7 108 -27 183q-4 -1 -6 1zM1716 1416q-15 -53 -39 -121q66 38 142 195
q51 104 23 153q-21 18 -39 -4q-31 -37 -63 -137q-9 -30 -24 -86zM2446 572q15 -5 12 -24q-2 -11 -20 -59q-126 -335 -237 -431q-91 -79 -223 -50q-141 30 -301 246q-98 133 -196 368q-90 -289 -262 -455q-163 -158 -465 -166q-128 -4 -291 49q-260 84 -376 285
q-120 208 -74 448q38 201 165 338q139 149 321 170q211 22 367 -91q61 -44 98 -124q54 8 136 -3q131 -18 248 -133l2 -2l68 237q-103 6 -210 44q-190 67 -313 213q-70 83 -85 145q-6 21 -1 36q5 20 27 18q97 -10 165 45q13 10 30 26q16 15 22 19q21 17 38 14q10 -3 17 -35
q10 -167 63 -269q86 -166 267 -182q13 43 63 224q33 120 61 176q40 81 87 90q144 27 211 -9q24 -13 39 -47q14 -35 12 -73q-6 -99 -73 -206q-68 -109 -182 -196q0 -10 -57 -220q-25 -100 -78 -268q154 -202 156 -204q150 -199 271 -252q118 -51 252 -15q83 23 130 125
q18 36 45 98q26 58 27 61q22 47 44 39z" />
    <glyph glyph-name="M" unicode="M" horiz-adv-x="2352" 
d="M2234 1742q-1 3 0 0q1 0 0 0zM895 985q-85 -43 -127 -103q-59 -83 -66 -208q-5 -88 54 -115q31 -15 70 8q38 23 59 65q45 91 47 202q0 91 -28 154q-4 -1 -9 -3zM2636 1750q31 1 33 -27q0 -13 -19 -20q1 1 -40 -13q-163 -57 -277 -301q-68 -144 -116 -298
q-109 -346 -157 -546q-46 -193 -39 -326q1 -21 4 -39q15 -92 59 -106q28 -9 76 51q25 32 63 104q50 97 124 260q19 42 44 38q13 -9 14 -21q0 -11 -9 -37q-61 -142 -103 -227q-26 -53 -80 -137q-58 -92 -167 -100q-84 -7 -142 12q-46 14 -85 81q-45 75 -41 189q5 162 83 449
q77 283 212 688l-239 -379q-50 -78 -115 -191q-1 -3 -17 -103q-28 -6 -69 -7l18 137q16 121 32 258q-137 -420 -284 -707q-67 -132 -183 -237q-112 -106 -253 -153q-184 -61 -388 -34q-142 19 -275 100q-139 83 -220 207q-60 92 -75 246q-12 118 4 202q41 216 170 358
q141 155 316 174q212 23 355 -88q58 -46 91 -112q159 60 338 78q33 3 42 -20q5 -11 8 -48q6 -66 -20 -48q-14 10 -91 11q-157 1 -245 -43q23 -82 21 -171q0 -118 -40 -212q-42 -94 -107 -134q-31 -19 -77 -14q-44 6 -69 29q-73 68 -60 198q12 111 69 195q61 88 169 147
q-32 61 -66 85q-99 67 -227 40q-73 -16 -176 -108q-73 -65 -125 -172q-61 -126 -65 -264q-7 -187 115 -370q108 -162 248 -198q194 -50 337 54q109 79 217 287q141 270 327 739q16 38 177 467q-99 -84 -241 -54q-64 14 -167 83q-73 49 -126 21q-86 -50 -62 -147
q16 -61 106 -128q7 -5 -8 -15q-15 -9 -37 -12q-76 -8 -88 -14q-34 -15 -52 -43q-20 -30 -30 -24q-39 22 -61 83q-20 57 -14 114q11 95 79 162q45 44 100 66q111 43 253 27q49 -5 153 -52q82 -38 152 -23q84 18 127 49q46 32 44 32q24 6 33 -13q7 -13 5 -34q-4 -95 -31 -339
q-34 -303 -35 -314q323 517 433 643q24 29 41 41q23 15 49 17q23 1 190 1h182z" />
    <glyph glyph-name="N" unicode="N" horiz-adv-x="2333" 
d="M895 985q-85 -43 -127 -103q-59 -83 -66 -208q-5 -88 54 -115q31 -15 70 8q38 23 59 65q45 91 47 202q0 91 -28 154q-4 -1 -9 -3zM2650 1723q0 -20 -18 -27l-21 -7t-19 -6q-162 -56 -275 -300q-78 -167 -135 -357q-99 -327 -136 -481q-56 -233 -34 -370q10 -68 38 -93
q8 -6 15 -8q28 -9 76 51q25 32 64 104q49 96 123 261q19 41 44 37q13 -9 14 -21q0 -11 -9 -37q-1 -2 -47 -106q-37 -85 -53 -117q-26 -53 -78 -137q-16 -24 -35 -43q-54 -55 -137 -61q-84 -7 -142 12q-46 14 -85 81q-44 75 -41 189q3 82 26 207q-3 35 -15 232l-18 287
q-7 109 -23 241l-113 -307q-116 -318 -217 -515q-67 -132 -183 -237q-112 -106 -253 -153q-184 -61 -388 -34q-142 19 -275 100q-139 84 -220 207q-60 92 -75 246q-12 118 4 202q41 216 170 358q141 155 316 174q212 23 355 -88q58 -46 91 -112q159 60 338 78q33 3 42 -20
q5 -11 8 -48q6 -66 -20 -48q-14 10 -91 11q-157 1 -245 -43q23 -82 21 -171q0 -118 -40 -212q-42 -94 -107 -134q-31 -19 -77 -14q-44 6 -69 29q-73 68 -60 198q12 111 69 195q61 88 169 147q-32 61 -66 85q-99 67 -227 40q-73 -16 -176 -108q-73 -65 -125 -172
q-61 -126 -65 -264q-7 -187 115 -370q108 -162 248 -198q194 -50 337 54q48 35 103 106l79 133q90 153 149 290l219 536l107 261q4 11 14 35l50 132q-99 -84 -241 -54q-64 14 -167 83q-73 49 -126 21q-86 -50 -62 -147q16 -61 106 -128q7 -5 -8 -15q-15 -9 -37 -12
q-76 -8 -88 -14q-34 -15 -52 -43q-20 -30 -30 -24q-39 22 -61 83q-20 57 -14 114q11 95 79 162q45 44 100 66q111 43 253 27q48 -5 153 -53q82 -39 152 -22q51 13 116 41q24 11 34 -13q6 -15 11 -68q2 -17 10 -93q10 -86 19 -179l13 -134q16 -155 36 -503q7 23 5 18
q120 441 277 766q31 75 96 140q61 60 121 82q57 20 281 26q31 1 33 -27z" />
    <glyph glyph-name="O" unicode="O" horiz-adv-x="1373" 
d="M672 746q28 -58 99 -54q51 2 100 31q126 74 194 214q80 171 90 253q14 112 -19 173q-19 36 -69 51q-57 16 -118 -8q-113 -46 -205 -177q-70 -96 -93 -228q-26 -158 21 -255zM224 709q-49 -291 47 -502q32 -69 108 -109q84 -43 218 -9q221 55 333 228q153 237 206 491
q27 126 23 206q-62 -180 -161 -312q-68 -90 -170 -147q-115 -65 -188 -33q-108 49 -99 267q7 178 74 337q108 255 313 336q113 45 199 -6q-23 78 -100 151q-96 92 -197 77q-64 -10 -146 -64q-107 -70 -186 -183q-201 -288 -274 -728zM3 748q29 405 214 658q173 234 455 323
q93 30 201 12q138 -22 217 -116q83 -99 116 -217q60 -72 90 -143q101 -240 46 -542q-67 -362 -302 -562q-193 -164 -463 -161q-359 4 -503 314q-88 188 -71 434z" />
    <glyph glyph-name="P" unicode="P" horiz-adv-x="1579" 
d="M1723 1191q384 54 400 411q5 103 -228 85q-16 -56 -104 -296q-53 -161 -68 -200zM626 63q196 -9 331 112q150 171 288 492l184 452q-284 -11 -481 -106q43 -113 18 -245q-25 -130 -91 -211q-38 -48 -90 -74q-69 -34 -125 -2q-73 42 -70 173q3 110 45 187q76 138 227 203
q-85 137 -244 130q-133 -5 -229 -84q-103 -84 -150 -240q-83 -278 40 -517q59 -114 155 -190q98 -76 192 -80zM893 990q-1 4 -3 3q-78 -40 -140 -102q-114 -114 -96 -292q9 -49 42 -66q44 -23 97 24q67 58 101 172q24 80 23 133q-1 73 -24 128zM2289 1665q85 -59 82 -143
q-3 -67 -34 -131q-97 -197 -337 -245q-111 -22 -306 -30q-2 -10 -3 -16q-153 -392 -271 -601q-64 -118 -191 -281l-20 -20v0v0q-144 -141 -343 -182q-83 -17 -175 -16h-53q-147 0 -287 67q-128 62 -206 157q-131 162 -143 345q-18 282 114 465q150 209 454 221
q116 5 211 -46q91 -50 136 -138q182 86 535 106q-1 -2 13 33l178 437q-183 -67 -288 -136q-130 -86 -221 -231q-6 -10 -16 -29q-10 -20 -14 -26q-14 -23 -25 -7q-46 67 -145 99q-14 5 -28 7q-15 3 -18 4q-6 2 -4 10q3 10 15 21q57 51 128 93q155 98 318 164q293 117 546 129
q268 13 398 -80z" />
    <glyph glyph-name="Q" unicode="Q" horiz-adv-x="1524" 
d="M152 -229q163 12 378 93q-142 110 -293 67q-164 -47 -161 -129q2 -36 76 -31zM1278 -500q78 -8 147 28q76 40 96 126q14 62 -18 117q-27 46 -96 64q-50 13 -127 -2q-32 -6 -43 14q-9 18 4 35q18 23 76 31q110 15 208 -49q123 -79 141 -203q15 -102 -17 -195
q-34 -100 -111 -153q-156 -109 -343 -36q-155 59 -287 219q-171 207 -266 286q-300 -114 -540 -74q-63 11 -88 49q-23 34 -9 79q27 93 160 142q157 58 308 3q46 -17 134 -56q374 200 491 474q143 334 160 685q16 327 -70 478q-40 70 -134 112q-190 85 -380 -145
q-251 -300 -361 -738q-65 -252 -11 -483q31 -132 113 -192q52 -38 167 34q110 68 165 158q83 135 123 372q19 116 4 262q-18 175 -79 265q-1 1 -18 20q-18 18 -20 21q-22 27 -8 43q36 10 72 -11q81 -47 136 -109q67 -76 111 -203q51 -145 42 -289q-14 -223 -135 -387
q-133 -181 -361 -232q-262 -60 -412 138q-71 95 -111 258q-36 145 -30 257q20 353 190 619q114 179 334 302q183 104 328 118q167 17 292 -74q141 -101 223 -313q70 -182 61 -455q-9 -281 -100 -479q-95 -211 -251 -364q-156 -156 -367 -240q194 -94 345 -245
q71 -71 162 -82z" />
    <glyph glyph-name="R" unicode="R" horiz-adv-x="2356" 
d="M1797 1396q-53 -161 -68 -201q386 54 401 412q6 104 -228 86q-16 -56 -105 -297zM1249 669l185 454q-285 -11 -483 -106q43 -114 18 -247q-24 -130 -91 -212q-38 -47 -90 -73q-70 -35 -125 -2q-74 42 -71 173q3 111 46 188q76 138 227 204q-86 137 -245 130
q-133 -5 -229 -84q-104 -84 -151 -241q-84 -279 40 -519q59 -114 156 -190q98 -77 193 -81q196 -9 331 113q151 171 289 493zM896 993q-1 4 -3 3q-78 -40 -140 -102q-115 -114 -96 -293q9 -50 42 -67q43 -22 97 24q67 59 101 174q24 80 23 133q-1 73 -24 128zM2390 523
q23 -3 6 -57q-67 -155 -101 -224q-26 -53 -80 -139q-59 -93 -168 -101q-85 -7 -143 12q-49 15 -89 87q-36 64 -38 177q-1 67 15 162q6 39 70 334q41 191 -3 265q-34 58 -82 73q-23 7 -62 9q-13 -1 -12 -1q-4 -13 -68 -169q-118 -286 -210 -450q-64 -118 -192 -282
q-9 -10 -19 -20h-1v0q-145 -142 -344 -183q-83 -17 -175 -16h-53q-148 0 -288 67q-129 62 -207 158q-132 163 -144 346q-18 283 114 467q151 210 456 222q117 5 211 -47q92 -50 137 -138q183 86 537 106q-1 -2 13 33l179 438q-184 -67 -289 -136q-131 -86 -222 -232
q-6 -10 -16 -29t-14 -26q-15 -23 -26 -7q-45 68 -145 100q-14 4 -27 7q-16 3 -19 4q-6 1 -4 10q3 9 15 21q58 51 128 93q156 98 320 164q294 118 547 130q270 13 400 -80q85 -60 82 -144q-3 -67 -34 -131q-98 -198 -338 -246l-4 -1q30 -16 48 -37q95 -115 59 -307
q-34 -206 -69 -353q-32 -174 -15 -282q15 -93 59 -107q28 -9 76 51q35 44 64 100q28 54 124 265q21 46 41 44z" />
    <glyph glyph-name="S" unicode="S" horiz-adv-x="1555" 
d="M2206 1735q0 3 1 1v-1h-1zM1802 1488q51 104 23 152q-21 18 -39 -4q-29 -34 -63 -136q-22 -66 -62 -205q66 37 141 193zM891 981q-84 -43 -126 -102q-58 -83 -65 -207q-5 -88 53 -116q31 -14 70 9q38 23 59 65q44 91 46 201q0 90 -28 153q-4 0 -9 -3zM1843 1727
q23 -13 38 -47q14 -35 12 -73q-6 -98 -72 -204q-68 -109 -181 -195q0 -2 -18 -71v0q-127 -509 -228 -707q-67 -131 -183 -236q-111 -106 -252 -152q-183 -61 -386 -34q-142 19 -274 99q-138 84 -219 207q-60 92 -75 245q-12 117 4 202q41 214 169 355q140 155 315 174
q211 23 353 -88q58 -45 91 -111q158 59 337 77q33 3 42 -19q5 -11 8 -48q6 -66 -20 -48q-14 10 -91 10q-156 2 -244 -42q24 -82 22 -170q0 -118 -41 -211q-41 -94 -106 -134q-31 -19 -77 -14q-44 6 -69 29q-73 67 -59 198q11 110 69 193q60 88 167 147q-31 61 -65 84
q-99 68 -226 40q-73 -16 -175 -107q-73 -65 -125 -172q-61 -125 -65 -262q-6 -187 115 -369q107 -161 247 -197q205 -53 335 54q94 77 182 238q75 137 130 277q110 280 173 517l-1 1q-1 -1 3 13q-102 6 -208 43q-190 66 -312 212q-69 82 -84 144q-6 21 -1 36q5 20 27 18
q97 -10 164 45l30 25q16 15 22 19q21 17 37 14q10 -3 17 -34q10 -167 63 -268q86 -166 265 -181q13 42 62 222q33 120 61 175q40 81 87 90q143 27 210 -9z" />
    <glyph glyph-name="T" unicode="T" horiz-adv-x="1545" 
d="M2390 1783q10 13 -20 23q-26 10 -66 13q-280 23 -445 -89q40 -1 187 -2q109 -1 218 17q107 18 126 38zM891 981q-84 -43 -126 -102q-59 -83 -66 -207q-4 -88 54 -116q31 -14 70 9q38 23 58 65q45 91 47 201q0 90 -28 153q-4 0 -9 -3zM2461 1810q11 -33 -22 -67
q-38 -40 -119 -55q-55 -11 -507 -11q-72 -75 -133 -254q-178 -769 -292 -990q-77 -149 -177 -239q-111 -106 -252 -152q-183 -61 -386 -34q-142 19 -274 99q-138 84 -219 207q-60 92 -75 245q-12 117 4 201q41 215 169 356q140 155 315 174q211 23 353 -88q58 -45 91 -112
q158 60 337 78q33 3 42 -20q5 -10 8 -47q6 -67 -20 -48q-14 10 -91 10q-156 2 -244 -42q24 -82 22 -170q0 -118 -41 -211q-42 -94 -106 -134q-31 -19 -77 -14q-44 6 -69 29q-73 67 -59 198q11 110 69 193q60 88 167 147q-31 60 -65 84q-99 68 -226 40q-73 -16 -175 -107
q-73 -65 -125 -172q-61 -126 -65 -262q-6 -187 115 -369q107 -161 247 -197q205 -53 335 54q94 77 182 238q75 137 130 277q51 130 170 587v3q44 185 85 247l21 21q20 21 33 37q65 80 121 128q-346 -21 -466 -44q-189 -37 -350 -146q-24 -17 -78 -64q-31 -27 -42 -21
q-5 3 -18 37q-20 53 -59 74q-33 16 -100 26q-32 4 -38 20q-15 36 139 88q269 91 666 99q62 2 249 -6q173 -6 174 -6q2 0 32 19q39 23 75 42q123 63 238 83q95 16 216 6q149 -12 165 -65z" />
    <glyph glyph-name="U" unicode="U" horiz-adv-x="2133" 
d="M810 1123q4 4 5 8q-55 41 -144 62q-109 22 -208 -1q-46 -11 -76 -43q-32 -33 -25 -67q14 -63 102 -78q123 -21 217 18q68 28 129 101zM2184 1697q18 -9 5 -52q2 7 -34 -91l-84 -240q-136 -406 -234 -805q-49 -204 -27 -343q14 -91 58 -105q28 -9 75 50q34 43 63 100
q43 80 126 266q19 41 38 39q22 -2 5 -56q-59 -139 -100 -222q-25 -53 -78 -138q-59 -92 -167 -99q-75 -6 -142 17q-66 22 -99 108q-23 60 -25 128q-1 50 10 123q-117 -170 -196 -238q-160 -138 -265 -139q-97 0 -134 12q-62 18 -73 80q-18 94 85 379q-2 -5 40 99l82 209
q121 316 144 438q30 153 -49 274q-64 99 -170 144q-102 43 -228 52q-114 1 -236 -61q-132 -67 -208 -178q-142 -204 -138 -442q5 -216 120 -344q122 -136 312 -101q111 20 190 159q71 124 69 237q-2 103 -37 133q-81 -92 -181 -132q-94 -38 -205 -24q-131 16 -181 102
q-17 30 -12 75q5 46 30 72q70 71 160 94q111 28 227 13q106 -14 179 -59q30 36 64 189q16 75 10 92q-12 29 51 9q36 -12 45 -18q21 -15 10 -46q-70 -209 -111 -272q45 -36 73 -108q57 -146 -24 -330q-36 -79 -118 -142q-77 -58 -170 -83q-121 -34 -272 -10q-169 28 -278 118
q-185 153 -178 423q5 221 113 378q118 172 290 247q129 56 319 67q223 15 459 -78q226 -90 286 -272q26 -77 3 -226q-8 -53 -278 -824q-46 -133 -53 -190q-7 -63 29 -63q33 0 126 76q83 69 122 118q77 95 148 236q7 13 34 75q26 60 29 66q-1 -3 2 4q217 775 323 1017
q11 27 51 34q78 14 180 -21zM2007 1744z" />
    <glyph glyph-name="V" unicode="V" horiz-adv-x="1887" 
d="M810 1126q4 4 5 8q-55 41 -144 62q-109 22 -208 -1q-46 -11 -76 -43q-32 -33 -25 -67q14 -63 102 -78q123 -21 217 18q68 28 129 101zM1273 1192q-107 477 -461 493q-121 5 -234 -46q-129 -59 -217 -180q-138 -190 -132 -450q4 -217 119 -344q122 -136 312 -101
q111 20 190 159q71 123 69 236q-2 104 -36 134q-82 -92 -182 -132q-94 -38 -205 -24q-131 16 -181 102q-17 30 -12 75q5 46 30 72q70 71 160 94q111 28 227 13q106 -14 179 -59q30 36 64 189q16 75 10 92q-12 29 51 9q36 -12 45 -18q21 -15 10 -46q-70 -209 -111 -272
q45 -36 73 -108q57 -146 -24 -330q-36 -79 -118 -142q-77 -58 -170 -84q-121 -33 -272 -9q-169 28 -278 117q-185 154 -178 424q5 221 113 378q118 171 303 251q145 63 306 63q184 -1 322 -76q94 -51 171 -166q81 -119 114 -264q98 -431 121 -970q47 199 112 440
q163 600 264 786q85 155 206 221q109 26 304 31q29 1 31 -32q1 -12 -19 -20q-5 -2 -19 -6q-15 -5 -20 -7q-165 -57 -280 -302l-64 -143q-149 -431 -213 -676l-79 -305l-44 -173q-18 -66 -35 -85q-157 -6 -189 22q-3 2 -2 17l-2 -1q-46 780 -129 1153z" />
    <glyph glyph-name="W" unicode="W" horiz-adv-x="2500" 
d="M810 1126q4 5 5 9q-55 41 -144 61q-108 23 -208 0q-45 -11 -76 -43q-32 -33 -25 -67q15 -64 102 -78q123 -21 218 17q68 29 128 101zM2937 1750q29 1 31 -32q1 -12 -19 -20q-6 -2 -19 -6q-15 -5 -20 -6q-165 -57 -279 -304q-38 -81 -63 -141q-151 -432 -215 -678
l-79 -305q-39 -151 -44 -172q-18 -66 -35 -85q-156 -6 -189 22q-3 2 -2 17l-1 -1q-26 439 -55 684q-20 171 -45 314q0 3 -2 13q-92 -271 -148 -487l-79 -305q-39 -151 -44 -172q-18 -65 -35 -84l1 -1q-30 -1 -55 -1q-109 0 -135 23q-3 2 -2 17l-1 -1q-1 2 -1 6v6
q-6 102 -13 191q-44 628 -116 951q-106 477 -460 492q-121 6 -235 -46q-129 -58 -217 -179q-138 -191 -132 -451q4 -216 119 -344q122 -136 313 -101q111 20 190 159q70 124 68 237q-2 104 -36 133q-81 -92 -181 -131q-95 -38 -206 -25q-131 16 -181 103q-17 29 -12 74
q5 47 31 73q69 71 160 94q111 28 227 13q105 -15 178 -59q31 35 64 189q17 75 10 92q-12 29 52 9q36 -12 45 -19q21 -14 10 -46q-71 -209 -112 -271q45 -36 74 -109q57 -145 -25 -329q-35 -80 -118 -142q-77 -58 -170 -84q-121 -34 -272 -9q-169 27 -277 117
q-186 154 -179 424q5 221 113 377q118 172 303 252q145 63 307 63q183 -1 322 -76q93 -51 171 -166q81 -119 113 -264q98 -430 121 -967l112 436q66 241 146 480q14 41 17 48q11 30 118 24q107 -7 108 -38q1 -20 -7 -45q4 -24 4 -27q24 -111 45 -256q44 -311 58 -625
q47 197 112 439q163 600 264 786q84 155 206 221q109 27 303 31z" />
    <glyph glyph-name="X" unicode="X" horiz-adv-x="2271" 
d="M809 1125q4 4 5 8q-55 41 -144 61q-108 23 -208 0q-45 -11 -76 -43q-32 -33 -24 -67q14 -63 101 -78q123 -21 217 18q68 28 129 101zM2316 534q22 -2 6 -56q-82 -190 -91 -209q-67 -136 -101 -187q-52 -76 -119 -78q-92 -3 -122 -2q-45 3 -84 66q-7 12 -121 282l-188 443
q-477 -788 -465 -786q-73 -12 -146 -4q-67 7 -85 22q-3 2 -2 17l-2 -1l530 911l59 98q-159 384 -303 517q-118 109 -271 116q-121 5 -234 -46q-129 -59 -216 -180q-138 -190 -133 -450q5 -215 119 -343q122 -136 312 -101q111 21 190 159q71 124 68 236q-1 104 -36 134
q-81 -92 -180 -132q-95 -38 -206 -24q-130 16 -180 102q-18 30 -13 75q5 46 31 72q69 70 160 94q111 28 226 12q106 -14 179 -58q30 35 64 189q16 75 10 91q-12 30 51 9q36 -12 45 -18q21 -14 10 -46q-70 -209 -112 -271q45 -36 74 -108q57 -146 -25 -330q-35 -79 -117 -141
q-77 -58 -170 -84q-121 -34 -272 -9q-169 27 -277 117q-185 154 -178 423q5 221 113 377q118 171 303 252q144 62 305 62q55 0 104 -6q359 -32 458 -109q87 -69 235 -360q108 170 212 310q67 91 153 138q108 26 316 31q29 1 31 -32q1 -12 -19 -20q-5 -2 -19 -6
q-15 -5 -20 -7q-114 -39 -211 -171q-110 -149 -332 -501q233 -602 379 -865q41 -73 70 -38q34 43 65 103q35 66 129 278q16 34 38 43q3 1 5 0z" />
    <glyph glyph-name="Y" unicode="Y" horiz-adv-x="1905" 
d="M809 1130q4 5 5 8q-55 42 -144 62q-108 23 -207 -1q-46 -10 -77 -42q-31 -34 -24 -67q14 -64 101 -78q123 -21 218 17q68 29 128 101zM2183 1704q18 -9 5 -52q1 4 -29 -82l-75 -218q-123 -373 -234 -765q-14 -54 -23 -84l-55 -197l-46 -166q-24 -85 -67 -221
q-100 -321 -243 -537q-162 -246 -426 -248q-207 -1 -321 119q-83 89 -88 220q-5 135 72 255q78 120 196 150q115 30 223 -15q48 -20 50 -29q9 -34 -21 -39q-4 -1 -20 7q-20 11 -33 15q-243 74 -358 -133q-50 -90 -51 -190q-1 -104 53 -169q39 -46 129 -61q113 -18 216 46
q144 90 274 366q90 191 232 667q-101 -140 -166 -196q-160 -138 -265 -139q-97 0 -134 12q-62 18 -73 80q-17 94 86 379q254 686 265 745q30 153 -49 274q-64 100 -170 144q-102 43 -228 52q-113 1 -235 -61q-132 -67 -209 -178q-142 -204 -137 -442q5 -216 119 -344
q122 -135 313 -100q111 20 190 159q70 123 68 236q-2 104 -36 133q-81 -92 -181 -131q-95 -38 -206 -25q-130 16 -180 103q-17 29 -12 74q5 46 30 72q70 71 160 94q232 60 405 -45q31 35 64 188q17 76 10 92q-12 30 52 9q35 -12 45 -18q20 -14 10 -46q-71 -209 -112 -271
q45 -36 74 -109q57 -145 -25 -329q-74 -166 -288 -226q-120 -33 -272 -9q-169 27 -277 117q-185 154 -178 424q5 220 113 377q200 290 609 314q223 15 458 -78q226 -90 286 -272q26 -77 3 -226q-8 -53 -277 -823q-47 -133 -53 -191q-7 -62 28 -62q34 0 126 76q83 69 122 118
q77 95 148 235q7 14 34 76q26 59 29 65q-1 -3 2 4q217 775 323 1017q11 27 51 34q78 14 180 -21zM2006 1751v0v0q-1 2 0 0z" />
    <glyph glyph-name="Z" unicode="Z" horiz-adv-x="2346" 
d="M947 189q164 160 408 605q-140 204 -280 217q-70 7 -105 2q25 -83 23 -172q-6 -225 -132 -312q-12 -9 -25 -15q-83 -41 -134 9q-45 43 -53 127q-6 64 10 129q24 105 99 186q57 62 123 93q-22 40 -71 76q-96 73 -223 53q-83 -14 -174 -94q-123 -109 -165 -264
q-83 -297 80 -539q109 -160 253 -194q121 -29 186 -16q86 16 180 109zM902 988q-3 0 -6 2q-1 1 -2 1q-80 -50 -112 -92q-44 -54 -68 -157q-13 -54 -3 -111q11 -63 43 -75q67 -24 129 80q39 67 46 169q7 108 -27 183zM2201 1657q-15 47 -85 -38q-35 -43 -67 -95
q72 -10 120 26q52 40 32 107zM2415 590q15 -5 12 -24q-2 -11 -20 -59q-126 -335 -238 -431q-83 -72 -222 -50q-96 15 -198 122q-67 69 -108 140q-34 58 -85 171l-52 115q-15 -41 -123 -189q-113 -155 -180 -219q-82 -80 -242 -136q-93 -32 -223 -30q-127 3 -290 49
q-96 27 -198 99q-120 84 -178 185q-99 173 -59 435q28 186 172 345q143 158 299 175q211 23 366 -89q61 -44 98 -124q55 8 137 -3q130 -18 247 -134l61 -76q97 191 103 202q-5 0 -27 -1h-39q-49 1 -49 11q0 20 13 51q14 34 29 35q23 1 128 2q143 248 187 319
q-245 30 -676 16q-184 -6 -318 -60q-8 -4 -37 -16q-22 -10 -32 -12q-31 -9 -19 24q47 82 138 185q81 93 115 114q57 37 447 -18q203 -28 457 -113q12 11 55 71q35 50 64 66q21 11 74 10q101 -3 174 -16q48 -8 72 -55q31 -61 -18 -148q-50 -88 -221 -71q-93 -138 -158 -293
q62 -2 94 0q21 -2 4 -44q-16 -40 -35 -50q-18 -9 -126 -3q-93 -181 -236 -415l29 -37q60 -79 64 -82q149 -200 270 -252q118 -51 251 -15q84 23 131 124l45 99q25 58 27 61q22 47 44 39z" />
    <glyph glyph-name="a" unicode="a" horiz-adv-x="1040" 
d="M411 222q28 49 112 316q47 178 46 232q-10 15 -28 23q-49 26 -103 18q-49 -13 -68 -30q-110 -124 -160 -426q-28 -165 15 -244q18 -24 54 -24q22 0 51 24q35 28 81 111zM1086 494q-1 -13 -6 -27q-64 -145 -105 -226q-25 -54 -78 -138q-59 -93 -168 -100q-84 -7 -141 11
q-37 13 -72 60q-98 -71 -243 -74q-90 -2 -167 33q-83 38 -121 128q-27 67 -25 145q2 90 27 195q56 239 174 336q41 34 109 48q80 17 176 -1q102 -19 159 -65q6 -5 13 -12q15 39 15 42q32 42 105 44q69 2 118 -33q22 -22 0 -89q-1 -1 -16 -45l-36 -101q-57 -162 -93 -289
q-44 -152 -8 -222q20 -37 59 -46q22 -5 40 6q16 10 41 40q34 43 63 100q43 81 123 253q27 58 46 56q14 -1 11 -29z" />
    <glyph glyph-name="b" unicode="b" horiz-adv-x="781" 
d="M462 632q-12 19 -31 -15q-18 -33 -23 -79q-10 -94 22 -166q30 62 39 140q11 93 -7 120zM668 1600q-17 20 -57 21q-40 2 -72 -48q-17 -26 -42 -90q-106 -271 -150 -442q-49 -193 -98 -361q49 71 164 270q145 249 168 296q103 209 103 293q0 43 -16 61zM787 505
q21 19 51 -1q-95 -245 -252 -269q-88 -165 -202 -212q-110 -43 -225 -6q-89 28 -141 87q-53 59 -57 135q-6 124 36 327q43 212 134 544q80 290 132 410q68 159 150 200q121 61 235 -7q71 -49 86 -112q22 -90 -40 -242q-39 -96 -146 -287q-120 -214 -347 -581q0 8 -11 -55
q-12 -65 -13 -113q-7 -202 103 -182q49 9 116 161q-23 71 -28 98q-23 131 12 226q21 58 56 87q48 29 131 -11q79 -39 97 -93q13 -84 -8 -179q-16 -73 -46 -135q60 17 104 76q26 35 73 134z" />
    <glyph glyph-name="c" unicode="c" horiz-adv-x="692" 
d="M666 332q-48 -90 -97 -149q-87 -108 -203 -159q-156 -49 -262 13q-99 57 -120 246q-13 117 21 281q37 178 102 241q68 65 202 79q131 14 215 -32q29 -27 37 -41q13 -22 13 -59q1 -64 -68 -160q-10 -14 -41 -44q-42 -41 -44 -42q-15 -3 -28 9q-14 14 -11 30q3 18 31 85
q27 64 31 95q6 43 -16 62q-23 20 -67 9q-61 -15 -109 -157q-44 -131 -49 -269q-7 -171 61 -245q33 -36 93 -17q53 17 116 72q82 74 138 163q31 49 90 172q13 28 37 27q11 0 13 -9q4 -10 -4 -29q-42 -98 -81 -172z" />
    <glyph glyph-name="d" unicode="d" horiz-adv-x="1029" 
d="M407 190l30 50q-3 -6 68 188q1 1 6 21q3 9 11 38q1 8 2 11l3 9q16 65 36 171q25 70 -18 113q-38 40 -96 30q-56 -9 -113 -101q-40 -64 -84 -197q-33 -101 -48 -223q-22 -173 33 -200q91 -42 170 90zM1055 505q23 -2 6 -56q-53 -124 -93 -205q-25 -52 -78 -136
q-58 -92 -166 -99q-83 -7 -140 11q-42 14 -67 58q-47 -33 -125 -55q-128 -36 -233 -15q-81 16 -119 54q-82 82 -68 235q1 10 6 70q3 43 6 67q34 209 128 333q25 32 82 70q57 37 91 43q155 32 247 -11q40 -19 66 -45q108 370 177 583q14 45 58 161q55 146 93 163
q154 28 172 -41q7 -25 -33 -131q1 2 -68 -203q-31 -93 -66 -213l-59 -206q-68 -222 -102 -353q-7 -24 -24 -99q-4 -20 -9 -42q-43 -158 -41 -269q1 -35 19 -65q20 -31 47 -40q28 -9 75 50q34 42 63 98q42 81 110 232q27 58 45 56z" />
    <glyph glyph-name="e" unicode="e" horiz-adv-x="691" 
d="M215 487l-1 -7q91 16 150 69q65 57 72 145q2 18 1 35q-6 47 -18 61q-17 19 -57 9q-62 -15 -110 -157q-24 -71 -37 -155zM703 517q13 28 37 27q11 0 14 -9q3 -10 -5 -29q-42 -99 -81 -172q-49 -91 -97 -151q-88 -107 -204 -159q-157 -49 -263 13q-100 58 -121 247
q-13 118 21 282q38 179 103 242q68 66 210 80q139 14 208 -32q29 -27 37 -42q13 -22 14 -59q1 -64 -69 -160q-3 -6 -22 -25q-7 -10 -13 -16q-40 -41 -118 -76q-79 -35 -146 -39v0q-26 -224 56 -313q33 -36 93 -18q54 17 117 73q82 74 139 163q31 49 90 173z" />
    <glyph glyph-name="f" unicode="f" horiz-adv-x="511" 
d="M487 1279q146 139 231 275q37 60 36 95q-2 9 -15 16q-51 11 -129 -110q-62 -97 -123 -276zM-147 -71q-292 -161 -442 -354q-83 -112 -124 -222q-34 -88 -23 -111q4 -9 18 -14q49 0 42 -1q133 18 273 195q169 214 256 507zM457 1183q-35 -114 -74 -271h30q25 0 25 -26
q0 -24 -25 -24h-41q-70 -294 -73 -304q-40 -152 -113 -387q91 43 157 107q125 119 184 251q20 44 32 52q7 4 22 -3q13 -12 -15 -77q-70 -165 -210 -281q-100 -84 -194 -123q-90 -277 -154 -413q-163 -343 -366 -471q-112 -54 -315 -43q-2 -1 -4 -1h-12q-75 0 -98 50
q-31 67 33 205q89 193 334 400q78 66 198 141q106 66 111 72q139 505 208 781q6 21 11 44h-53q-18 0 -24 17q-6 16 9 27l95 74q50 228 88 342q80 236 204 326q142 104 268 99q67 -3 97 -53l2 -4q32 -56 -34 -163q-104 -165 -303 -344z" />
    <glyph glyph-name="g" unicode="g" horiz-adv-x="925" 
d="M74 -587q171 215 258 511q-294 -163 -445 -357q-84 -113 -125 -224q-34 -89 -23 -112q4 -9 18 -14q49 0 42 -1q134 18 275 197zM253 73q43 -7 85 22q17 11 38 32q25 23 23 21q132 492 151 584q-12 15 -28 22q-91 47 -161 17q-51 -34 -76 -61q-53 -60 -90 -191
q-49 -175 -44 -276q2 -48 27 -100q31 -62 75 -70zM993 578q13 -12 -15 -78q-71 -166 -192 -283q-113 -96 -179 -123q-11 -42 -11 -40v0q-75 -264 -143 -406q-158 -330 -338 -443q-118 -57 -313 -46q-2 -1 -4 -1h-12q-76 0 -99 50q-31 68 33 207q90 194 337 403
q79 66 200 142q83 52 104 67q-89 -26 -143 -25q-78 2 -158 44q-54 29 -82 81q-49 94 -27 255q31 223 104 344q84 138 223 158q46 6 145 -18q104 -25 146 -56q16 39 22 49q18 27 46 28q24 -1 91 -14q70 -14 59 -60q0 -19 -18 -75l-43 -171l-59 -235q-40 -161 -41 -163
q75 36 147 106q106 120 166 253q20 45 32 53q7 4 22 -3z" />
    <glyph glyph-name="h" unicode="h" horiz-adv-x="910" 
d="M547 1649q-46 -29 -70 -98q-48 -138 -82 -309q-3 -15 -46 -208q-41 -186 -45 -213q105 190 198 343q138 229 178 344q28 80 -18 134q-44 53 -115 7zM738 827q40 -51 21 -189q-15 -107 -66 -279q-69 -236 -44 -262q35 -37 107 88q50 88 88 170l56 123q15 39 29 49
q12 8 20 5q21 -8 9 -47q0 -2 -44 -98q-133 -288 -198 -339q-52 -34 -125 -42q-92 -9 -134 21q-49 35 -48 121q0 32 28 155q10 38 76 306q25 99 28 132q7 70 -33 56q-74 -27 -246 -158l-76 -324q-66 -285 -66 -287q-4 -19 -22 -28q-204 12 -196 9q-16 14 -11 41l66 298
l76 343q45 215 181 777q51 210 115 243q45 23 135 32t83 5q111 -10 175 -104q48 -69 -28 -227q-157 -325 -354 -635q91 59 193 90q136 42 205 -45z" />
    <glyph glyph-name="i" unicode="i" horiz-adv-x="517" 
d="M553 534q23 -2 6 -58q-66 -152 -106 -235q-19 -38 -80 -134q-62 -98 -169 -105q-90 -7 -142 12q-77 29 -110 109q-23 58 -18 118q9 98 44 224q85 288 122 370q23 52 106 52q103 1 125 -22q22 -22 0 -89q-2 -8 -49 -143l-51 -147q-69 -213 -61 -308q3 -32 21 -66
q24 -47 58 -50q52 -4 133 152q44 82 125 262q27 60 46 58zM409 1330q-57 -1 -98 35t-43 88q-2 53 38 91q39 38 96 40t98 -34t43 -89q2 -52 -38 -91q-39 -38 -96 -40z" />
    <glyph glyph-name="j" unicode="j" horiz-adv-x="526" 
d="M-399 -613q61 123 99 214q-1 5 -68 -46q-72 -55 -101 -96q-43 -61 -54 -110q-13 -60 34 -65q32 -3 90 103zM575 501q1 -8 -13 -41q-77 -175 -179 -321q-133 -193 -239 -271q-26 -19 -72 -47q-47 -27 -50 -29q-205 -552 -293 -621q-37 -29 -78 -35q-89 7 -154 51
q-62 42 -77 98q-25 90 70 223q60 83 248 205q122 288 351 1078q25 85 57 90q55 10 133 -10q40 -10 52 -21q15 -13 11 -41q-25 -226 -289 -917q93 47 170 127q149 154 281 427q36 75 53 67q17 -9 18 -12zM397 1330q-56 -2 -98 34q-41 36 -42 88q-2 52 37 90t96 40
q56 2 97 -34q42 -36 43 -88q2 -52 -37 -90q-39 -39 -96 -40z" />
    <glyph glyph-name="k" unicode="k" horiz-adv-x="919" 
d="M406 1244l-46 -208q-41 -186 -45 -213q103 187 198 343q138 229 178 345q28 80 -17 134q-45 53 -116 7q-46 -29 -70 -98q-48 -138 -82 -310zM961 533q21 -8 9 -47q0 -2 -44 -99q-134 -288 -199 -339q-52 -34 -125 -42q-92 -9 -134 21q-49 36 -48 121q0 32 28 156
q10 38 76 306q25 99 28 132q7 71 -33 56q-74 -26 -246 -158q-8 -29 -76 -324q-66 -286 -67 -288q-4 -19 -21 -28q-205 12 -197 9q-16 14 -11 41q2 10 66 299q67 297 76 343q45 215 182 779q51 210 115 243q45 23 135 32t83 5q111 -10 176 -104q47 -69 -29 -228
q-66 -136 -280 -510q328 363 510 539q18 18 36 0q18 -19 0 -36q-196 -190 -558 -593q69 36 131 55q137 41 205 -45q40 -52 22 -190q-16 -108 -66 -279q-69 -236 -44 -263q35 -37 106 88q51 88 91 177q25 50 59 127q13 26 24 39q12 8 20 5z" />
    <glyph glyph-name="l" unicode="l" horiz-adv-x="570" 
d="M660 1600q-3 45 -42 63q-39 17 -66 -12q-45 -48 -74 -129q-102 -300 -194 -741q95 146 132 210q109 186 166 314q86 192 78 295zM118 6q-90 21 -135 99q-37 64 -33 138q12 186 164 793q131 519 184 612q55 97 165 103q81 3 148 -27q74 -33 89 -95q26 -111 -88 -368
q-49 -110 -192 -352q-175 -296 -189 -309q-58 -247 -66 -344q-7 -86 44 -117q29 -18 70 -3q50 18 100 78q125 151 198 295q25 51 40 49q32 -4 11 -51q-102 -224 -231 -376q-134 -157 -279 -125z" />
    <glyph glyph-name="m" unicode="m" horiz-adv-x="1603" 
d="M381 395q273 436 349 469q77 13 166 -9q43 -11 52 -38q9 -25 -3 -96q-13 -75 -68 -289q-1 -1 121 166q118 161 162 213q29 34 83 43q56 9 109 -6q78 -22 82 -74q5 -54 -33 -216q-69 -289 -79 -423q-2 -31 20 -43q19 -10 46 19q13 14 40 56q83 127 185 348q11 26 15 32
q14 18 31 5q12 -10 7 -26q-19 -50 -88 -192q-68 -138 -110 -203q-74 -112 -137 -123q-116 -20 -220 23q-22 9 -25 44q-7 101 66 406q65 270 58 293q-4 10 -13 4q-8 -5 -26 -28q-135 -169 -336 -472q-1 -3 -31 -114q-32 -117 -35 -127q-11 -29 -36 -35h-187q-20 0 -14 29
q2 9 7 27q7 22 9 26q149 536 166 639q10 45 -5 51q-16 6 -146 -191q-173 -262 -216 -318q-13 -38 -39 -124q-27 -87 -35 -107q-11 -23 -22 -28q-8 -3 -45 -4q-86 -4 -148 0q-13 1 -14 15q-2 13 6 42q177 668 181 707q4 33 -7 39q-23 11 -55 -44q-20 -35 -52 -116
q-38 -96 -69 -160q-18 -38 -19 -41q-14 -22 -28 -15q-26 12 -3 63q12 25 54 126q43 105 41 101q60 131 125 160q39 17 110 6q63 -9 96 -28q29 -17 29 -62q-1 -132 -72 -400z" />
    <glyph glyph-name="n" unicode="n" horiz-adv-x="1101" 
d="M1164 527q-18 -51 -87 -193q-68 -138 -111 -202q-74 -112 -137 -124q-141 -18 -226 28q-17 9 -19 37q-7 84 66 409q60 270 56 281t-17 2q-14 -9 -30 -32q3 4 -116 -168l-190 -273q-45 -187 -78 -265q-9 -21 -41 -25h-67h-115q-20 0 -13 36q3 12 10 33q8 25 9 31
q129 479 146 553q24 101 26 112q3 27 -10 34q-22 10 -60 -65l-56 -123l-61 -133q-14 -29 -19 -36q-12 -19 -25 -15q-25 8 -5 55q10 26 104 230q37 81 56 110q27 42 56 55q44 18 118 6q48 -7 94 -28q25 -11 33 -33q10 -30 0 -95l-65 -289q238 344 263 373q27 32 81 42
q35 7 101 -9q50 -12 65 -20q35 -17 36 -51q2 -52 -52 -297q-59 -270 -66 -337q-3 -35 21 -50q21 -9 47 21q13 12 40 55q84 128 185 349q12 26 16 32q14 18 31 5q12 -10 6 -26z" />
    <glyph glyph-name="o" unicode="o" horiz-adv-x="852" 
d="M247 613q-12 -87 -2 -145q15 -76 46 -119q45 -65 127 -80q21 50 72 253q49 196 23 256q-11 25 -30 35q-26 14 -80 12q-64 -2 -98 -59q-20 -32 -58 -153zM324 95q46 27 77 119q-94 17 -142 53q-41 32 -71 107q-33 -181 -5 -237q19 -38 61 -52q41 -12 80 10zM908 564
q19 -9 -2 -59q-47 -112 -110 -185q-78 -90 -160 -108q-42 -77 -54 -94q-41 -54 -92 -78q-73 -35 -180 -39q-103 -5 -194 20q-61 16 -103 66q-38 45 -48 100q-13 81 6 219q17 117 42 196q53 165 155 237q94 67 284 51q181 -15 249 -86q55 -57 39 -197q-15 -137 -81 -324
q127 58 209 250q18 41 40 31z" />
    <glyph glyph-name="p" unicode="p" horiz-adv-x="869" 
d="M173 152q97 70 262 96q36 90 81 258q60 223 45 261q-28 72 -121 63q-59 -6 -95 -55q-94 -130 -158 -414q-34 -151 -14 -209zM370 123q28 27 39 57q-136 -30 -195 -82q38 -25 89 -11q41 11 67 36zM-296 -397q20 48 42 136q-138 -141 -184 -266q-55 -148 -38 -187
q11 -27 74 91q50 94 106 226zM929 553q17 -6 -8 -64q-44 -104 -104 -174q-77 -90 -160 -108l-12 -22l-11 -23q-7 -12 -12 -22q-14 -26 -39 -50q-31 -31 -53 -40q-8 -5 -17 -9q-88 -44 -256 -42q-51 0 -161 33q-254 -672 -241 -643q-42 -95 -112 -188q-26 -32 -45 -39
q-90 -15 -156 13q-69 29 -92 96q13 216 184 442q70 92 175 186q42 108 117 363q77 258 122 377q51 134 151 206q53 37 193 42q159 5 281 -53q71 -34 94 -68q28 -42 21 -124q-12 -138 -102 -362q120 59 199 246q12 23 20 28t24 -1z" />
    <glyph glyph-name="q" unicode="q" horiz-adv-x="1027" 
d="M-13 -691q25 -16 35 -15q38 6 91 103q3 8 82 200q-1 3 -6 3q-129 -108 -147 -131q-75 -99 -55 -160zM406 163q5 12 16 33l52 160l69 239q8 27 18 70q11 48 16 65q-23 56 -90 84q-66 5 -114 -55q-36 -43 -67 -97q-64 -109 -106 -317q-34 -170 12 -221q24 -26 64 -33
q33 -6 71 25q58 47 59 47zM1068 522q16 -8 17 -12q2 -8 -12 -40q-77 -175 -178 -322q-131 -188 -240 -270q-19 -14 -61 -38q-41 -24 -60 -38q2 8 -112 -317q-81 -174 -84 -179q-50 -91 -115 -136q-28 -19 -61 -24q-85 7 -151 52q-64 44 -91 111q-2 100 82 209q69 90 169 157
q7 5 43 24q27 15 36 25q2 2 33 90q53 149 70 191l12 33q-72 -31 -152 -36q-94 -5 -149 34q-86 62 -103 143q-16 74 21 255q36 175 81 261q52 99 122 140q93 54 216 52q126 -1 210 -62q25 52 71 60q50 9 117 -8q74 -19 71 -53q2 21 -164 -508q-72 -230 -142 -414
q88 42 170 127q150 158 281 427q19 41 28 52q13 20 25 14z" />
    <glyph glyph-name="r" unicode="r" horiz-adv-x="921" 
d="M906 362q-32 -47 -64 -63q-41 -22 -91 -8q-51 14 -121 58q-51 32 -57 72q-9 59 40 201q1 2 11 27q11 26 17 45q23 64 13 81q-5 11 -14 5q-8 -5 -24 -29q-1 -1 -29 -54l-67 -122q-105 -191 -168 -283q-23 -103 -83 -257q-33 -31 -103 -33q-99 -5 -116 5q-16 9 8 97
q7 25 19 61l10 33q114 425 130 516q0 4 5 26q4 19 5 28q4 32 -7 39q-21 10 -55 -56q-9 -19 -57 -127q-55 -124 -71 -157q-10 -22 -17 -30q-11 -12 -23 -7q-22 7 -1 57q33 82 114 258q29 67 50 94q22 28 54 42q39 17 112 6q62 -9 95 -28q21 -12 28 -35q8 -31 0 -96
q-11 -86 -57 -263q50 84 145 259q62 117 150 132q57 10 105 -11q40 -19 56 -34t18 -36q2 -34 -57 -183q-63 -158 -50 -215q7 -33 28 -38q44 -8 97 81q-4 -7 53 105q19 38 39 28q21 -10 2 -54q-24 -59 -72 -137z" />
    <glyph glyph-name="s" unicode="s" horiz-adv-x="732" 
d="M151 202q-16 -13 -6 -14q13 -2 26 15q5 4 9 11q4 6 4 7q-17 -6 -33 -19zM355 235q-6 1 -46 5q-19 -71 -68 -106q-34 -23 -57 -21q-18 1 -41 18q-18 13 -24 24q-13 19 -4 42q7 19 23 33t67 29q21 63 0 99q-85 -1 -128 -63q-26 -39 -29 -84q-3 -35 9 -69q17 -50 60 -73
q39 -21 87 -14q35 5 61 22q75 47 90 158zM122 990q-14 48 -51 71q-14 8 -26 9q-19 1 -16 -23q12 -107 100 -163q1 71 -7 106zM749 536q14 33 41 21q12 -6 11 -16q0 -11 -15 -40q-70 -136 -130 -195q-21 -20 -65 -43q-5 -74 -62 -144q-52 -64 -141 -95t-189 -22
q-98 10 -166 76q-85 81 -46 181q33 87 129 116q74 23 129 2q65 -25 68 -103q3 1 24 0h21q-14 128 -85 236q-43 65 -145 169q-54 -145 -98 -232q-4 -8 -10 -14q-13 -12 -27 -2q-21 16 2 50q54 122 95 236l-15 18l-18 21q-81 93 -102 142q-28 63 -7 131q4 11 19 34
q18 28 29 34q30 16 69 6q61 -16 92 -89q33 -75 13 -165q9 -6 95 -68q85 -60 108 -80q122 -101 165 -193q34 -72 51 -186q77 38 160 214z" />
    <glyph glyph-name="t" unicode="t" horiz-adv-x="611" 
d="M647 563q8 7 25 2t11 -21q-75 -208 -245 -412q-139 -166 -294 -123q-64 18 -115 61q-80 67 -79 171q2 128 112 561q0 1 3 13h-84q-24 0 -18 38q6 35 43 35h79q2 12 3 12l157 532q69 233 72 242q12 43 28 55q12 11 54 17q19 3 85 3q49 -8 54 -33q6 -32 -43 -179
q-26 -80 -180 -640l-2 -4h84q22 0 13 -41q-7 -33 -38 -33h-77q-5 -17 -5 -20q-53 -193 -73 -274q-47 -193 -39 -291q5 -59 39 -89q60 -52 137 -6q29 17 69 63q89 104 198 315q24 44 26 46z" />
    <glyph glyph-name="u" unicode="u" horiz-adv-x="942" 
d="M980 517q14 -2 11 -30q-1 -14 -5 -27q-55 -129 -96 -212q-26 -54 -80 -140q-60 -94 -171 -102q-73 -5 -112 2q-57 9 -79 33q-45 52 -26 181q7 42 23 110q22 87 24 101q-45 -61 -131 -191q-86 -129 -132 -191q-3 -3 -20 -22q-11 -12 -32 -20q-39 -14 -121 7q-39 10 -65 32
q-42 37 -38 97q9 117 89 426q7 25 22 92l24 97q29 110 49 120q31 16 102 9q80 -8 97 -45q9 -20 -46 -227q-84 -318 -80 -304q-51 -209 -20 -201q32 7 124 145l65 100q33 53 37 58q98 135 106 165l64 217q7 22 25 46q20 28 38 31q50 11 107 -10q60 -21 64 -59q1 -13 -43 -159
q-40 -135 -93 -377q-27 -123 -14 -172q2 -9 6 -14q12 -11 25 -15q29 -9 77 52q35 43 65 100q43 84 113 240q28 59 47 57z" />
    <glyph glyph-name="v" unicode="v" horiz-adv-x="928" 
d="M716 725q-10 35 -38 32q-27 -3 -55 -39q-66 -83 -62 -229q2 -83 37 -124q149 254 118 360zM956 540q8 3 13 -3q20 -19 8 -48q-61 -144 -152 -205q-100 -66 -209 -8q-88 -137 -163 -221q-38 -43 -90 -49q-99 -11 -162 -1q-49 8 -53 140q-3 90 23 356q25 257 22 277
q-4 24 -20 9q-14 -13 -26 -44q-83 -218 -114 -280q-8 -16 -17 -25q-12 -11 -22 -6q-13 8 -11 24q1 13 15 44q31 65 75 187q52 140 62 156q17 28 49 35q62 14 142 -8q56 -17 80 -51q16 -23 -2 -209q-1 -19 -29 -413q-4 -50 4 -74q7 -23 23 -15q42 19 162 205q-62 69 -62 198
q0 88 38 184q59 148 136 188q34 17 76 -3q75 -36 28 -224q-30 -117 -138 -328q34 -28 103 -20q46 6 95 58q55 60 98 152q8 18 18 22z" />
    <glyph glyph-name="w" unicode="w" horiz-adv-x="1352" 
d="M1109 755q-26 -3 -55 -39q-70 -89 -61 -229q6 -86 37 -120q147 252 117 356q-10 35 -38 32zM1074 331q5 -7 21 -13q32 -13 86 -6q40 5 88 57q53 56 96 150q6 19 16 23q8 4 16 -4q19 -20 7 -48q-60 -143 -149 -202q-100 -67 -211 -8q-54 -90 -115 -166q-79 -98 -134 -108
q-115 -19 -185 19q-13 42 -11 107q3 101 1 129q-20 -24 -51 -76q-35 -57 -51 -78q-65 -88 -155 -97q-46 -5 -97 -1q-58 5 -70 19q-18 19 -22 121q-3 89 23 353q25 246 20 275q-8 50 -39 -14q-11 -24 -47 -121q-41 -112 -75 -186q-12 -26 -17 -32q-11 -14 -26 -8t-14 16
q0 4 7 20q-3 -6 23 49q29 65 81 208q43 121 52 131q11 14 49 34q67 10 135 -9q63 -18 84 -49q17 -23 -1 -206q-3 -26 -16 -149q-9 -85 -11 -121q-8 -138 -8 -134q0 -108 32 -93q34 15 79 77q12 16 76 114q48 73 52 94q0 2 15 222q12 178 24 206q0 16 18 34q61 17 120 6
q70 -14 69 -66q0 -54 -22 -326q-13 -170 -15 -322q0 -30 13 -30q10 0 26 18q74 75 135 176q-14 16 -28 49q-29 65 -29 147q-1 86 34 182q30 85 67 128q39 47 71 59q33 14 71 -5q74 -36 27 -221q-29 -116 -135 -324z" />
    <glyph glyph-name="x" unicode="x" horiz-adv-x="924" 
d="M956 515q14 -4 14 -26q0 -11 -2 -21q-46 -108 -102 -222q-26 -53 -80 -139q-53 -84 -144 -100q-47 -15 -133 9q-82 24 -99 52q-41 72 -73 230v3q-40 -45 -96 -146q-58 -104 -97 -151q-12 2 -43 0q-41 -4 -53 -4q-66 -1 -73 38q56 128 181 285q29 37 131 153
q-9 26 -32 113q-27 103 -44 157q-17 56 -34 60q-5 0 -11 -9q-7 -10 -54 -151q-31 -90 -77 -188q-12 -26 -17 -32q-11 -14 -26 -8q-16 8 -15 19q0 3 7 20l11 23q9 21 12 26q32 80 77 208q40 124 45 132q22 32 50 35q148 15 186 -34q14 -14 25 -41q14 -33 51 -157q9 7 98 94
q66 63 107 97q11 10 26 19q21 14 22 15q17 12 37 13q48 2 85 -19q12 -17 -9 -42q-3 -4 -38 -38q-181 -172 -276 -281q40 -163 78 -258q25 -61 54 -115q3 -4 27 -38q12 -8 25 -9q26 -3 64 45q28 36 55 87q43 82 123 260q17 43 37 36z" />
    <glyph glyph-name="y" unicode="y" horiz-adv-x="969" 
d="M114 -583q170 215 257 510q-293 -162 -444 -356q-83 -113 -124 -223q-35 -89 -24 -112q4 -9 18 -14q50 0 43 -1q133 18 274 196zM1041 579q13 -12 -16 -77q-70 -166 -201 -283q-120 -101 -172 -122q-77 -287 -156 -451q-156 -325 -334 -438q-115 -55 -319 -44
q-2 -1 -4 -1h-12q-76 0 -99 50q-31 67 33 206q90 194 336 402q78 67 199 142q107 66 112 72q0 2 2 8q-30 -20 -62 -30q-78 -25 -172 -11q-134 19 -184 122q-43 91 7 368q45 246 116 372q8 22 38 24q109 4 171 -12q31 -8 8 -66q-45 -120 -88 -283q-73 -280 -43 -389
q8 -29 28 -50q23 -22 49 -20q94 7 148 90q27 42 36 82q155 599 156 600q21 50 58 51q-1 1 24 0q28 -2 53 -8q81 -21 85 -69q-1 3 -26 -77q-11 -36 -45 -176l-95 -384q70 33 139 100q116 120 175 253q20 44 32 52q7 4 23 -3z" />
    <glyph glyph-name="z" unicode="z" horiz-adv-x="958" 
d="M1005 532q12 -10 6 -25q-17 -49 -84 -185q-65 -133 -107 -195q-59 -89 -111 -112q-23 -12 -46 -12h-652q-44 6 -47 38q-2 21 43 83q74 104 213 281h-48q-15 0 -26 11t-11 26q0 16 11 27t26 11h109q151 188 260 306q-259 0 -328 -1q-17 -1 -32 -21q-12 -17 -34 -66
q-94 -207 -145 -305q-14 -26 -21 -32q-9 -9 -22 1q-11 9 -4 32q3 10 22 51q63 137 153 372q11 30 31 50q16 17 30 18q53 4 343 4q300 0 315 -7q31 -15 5 -48l-49 -60q3 4 -246 -294h60q15 0 27 -11q11 -11 11 -27q0 -15 -11 -26q-12 -11 -27 -11h-123q-187 -226 -223 -278
q417 0 440 3q50 8 77 49q85 132 170 317l15 31q14 17 30 5z" />
    </font>
</defs>
</svg>
